<?xml version="1.0" ?><!-- Uploaded to: SVG Repo, www.svgrepo.com, Generator: SVG Repo Mixer Tools -->
<svg width="800px" height="800px" viewBox="0 0 128 128" data-name="Layer 2" id="Layer_2" xmlns="http://www.w3.org/2000/svg"><defs><style>.cls-1{fill:#f1edd8;}.cls-2{fill:#fd8d92;}.cls-3{fill:#202128;}.cls-4{fill:#f1e175;}</style></defs><title/><path class="cls-1" d="M61.86,12.05H73a3.09,3.09,0,0,1,3.09,3.09V25.25a0,0,0,0,1,0,0H58.77a0,0,0,0,1,0,0V15.14A3.09,3.09,0,0,1,61.86,12.05Z"/><circle class="cls-2" cx="67.44" cy="61.64" r="42.06"/><path class="cls-1" d="M94.17,85.91A36.27,36.27,0,0,1,85.3,93a.77.77,0,0,0,.38,1.44.86.86,0,0,0,.38-.1A37.66,37.66,0,0,0,95.31,87a.77.77,0,0,0,0-1.09A.78.78,0,0,0,94.17,85.91Z"/><path class="cls-1" d="M100.22,78.57a.77.77,0,0,0-1,.31A35.44,35.44,0,0,1,97.24,82a.77.77,0,0,0,.2,1.07.79.79,0,0,0,.44.14.77.77,0,0,0,.63-.34,37.2,37.2,0,0,0,2-3.29A.77.77,0,0,0,100.22,78.57Z"/><path class="cls-1" d="M45.9,30.78A37.44,37.44,0,0,0,37.37,39a.77.77,0,0,0,.15,1.08.79.79,0,0,0,.46.15.76.76,0,0,0,.62-.3A36.08,36.08,0,0,1,46.78,32a.77.77,0,0,0-.88-1.26Z"/><path class="cls-1" d="M33.7,46.74a.78.78,0,0,0-1,.42,37.75,37.75,0,0,0-2.29,7.78.76.76,0,0,0,.62.89l.14,0a.79.79,0,0,0,.76-.64,35.46,35.46,0,0,1,2.19-7.46A.77.77,0,0,0,33.7,46.74Z"/><path class="cls-1" d="M93.84,74.33l-3.67-2.21,2.23-.57a3.32,3.32,0,0,0-1.63-6.43l-8.61,2.17-8.29-5,8.67-5.22,8.78,2.21a3.21,3.21,0,0,0,.81.1,3.32,3.32,0,0,0,.81-6.53l-2.4-.61,2.62-1.57A3.32,3.32,0,1,0,89.73,45l-2.47,1.49.55-2.08a3.32,3.32,0,1,0-6.42-1.67l-2.25,8.64-8.59,5.18v-9.7l6.3-6.26a3.32,3.32,0,0,0-4.67-4.71l-1.63,1.62V33.23a3.32,3.32,0,1,0-6.63,0v4.11l-1.39-1.41a3.32,3.32,0,1,0-4.74,4.64l6.13,6.26V56.3l-8.17-4.92L53.5,42.74a3.32,3.32,0,1,0-6.42,1.67l.54,2.08L45.16,45a3.32,3.32,0,1,0-3.43,5.68l2.61,1.57L42,52.86a3.31,3.31,0,0,0,.81,6.53,3.21,3.21,0,0,0,.81-.1l8.78-2.21L61,62.3l-8.29,5-8.61-2.17a3.32,3.32,0,0,0-1.63,6.43l2.23.57-3.67,2.21A3.32,3.32,0,1,0,44.47,80L48,77.89l-.5,1.91a3.33,3.33,0,0,0,2.38,4,3.42,3.42,0,0,0,.83.1,3.32,3.32,0,0,0,3.21-2.48L56.12,73l7.8-4.69v9.37L57.49,84a3.32,3.32,0,0,0,4.67,4.71L63.92,87v3a3.32,3.32,0,1,0,6.63,0V87.18l1.5,1.54a3.32,3.32,0,1,0,4.74-4.64L70.55,77.7V68L78.76,73,81,81.47A3.31,3.31,0,0,0,84.17,84a3.44,3.44,0,0,0,.84-.1,3.33,3.33,0,0,0,2.38-4l-.5-1.91L90.42,80a3.32,3.32,0,1,0,3.42-5.68Z"/><rect class="cls-3" height="12.05" width="1.54" x="66.67"/><polygon class="cls-4" points="116.1 105.93 118.12 109.62 121.8 111.64 118.12 113.65 116.1 117.34 114.08 113.65 110.4 111.64 114.08 109.62 116.1 105.93"/><polygon class="cls-4" points="95.44 89.02 97.46 92.71 101.15 94.72 97.46 96.74 95.44 100.43 93.43 96.74 89.74 94.72 93.43 92.71 95.44 89.02"/><polygon class="cls-4" points="51.17 15.99 53.18 19.68 56.87 21.7 53.18 23.72 51.17 27.4 49.15 23.72 45.46 21.7 49.15 19.68 51.17 15.99"/><polygon class="cls-4" points="29.34 96.95 31.35 100.64 35.04 102.65 31.35 104.67 29.34 108.36 27.32 104.67 23.63 102.65 27.32 100.64 29.34 96.95"/><polygon class="cls-4" points="11.9 3.45 13.92 7.14 17.6 9.16 13.92 11.17 11.9 14.86 9.88 11.17 6.2 9.16 9.88 7.14 11.9 3.45"/></svg>